<?xml version="1.0" encoding="UTF-8" standalone="no"?>
<!-- Created with Inkscape (http://www.inkscape.org/) -->

<svg
   xmlns:dc="http://purl.org/dc/elements/1.1/"
   xmlns:cc="http://creativecommons.org/ns#"
   xmlns:rdf="http://www.w3.org/1999/02/22-rdf-syntax-ns#"
   xmlns:svg="http://www.w3.org/2000/svg"
   xmlns="http://www.w3.org/2000/svg"
   xmlns:sodipodi="http://sodipodi.sourceforge.net/DTD/sodipodi-0.dtd"
   xmlns:inkscape="http://www.inkscape.org/namespaces/inkscape"
   width="84.532318"
   height="90.000015"
   viewBox="0 0 22.365842 23.812503"
   version="1.1"
   id="svg8"
   inkscape:version="0.92.4 (f8dce91, 2019-08-02)"
   sodipodi:docname="logo-elixir.svg"
   inkscape:export-filename="/home/uniqueg/Dropbox/repos/proTES/images/logo-elixir.png"
   inkscape:export-xdpi="90"
   inkscape:export-ydpi="90">
  <defs
     id="defs2" />
  <sodipodi:namedview
     id="base"
     pagecolor="#ffffff"
     bordercolor="#666666"
     borderopacity="1.0"
     inkscape:pageopacity="0.0"
     inkscape:pageshadow="2"
     inkscape:zoom="1.979899"
     inkscape:cx="-14.708004"
     inkscape:cy="-103.74309"
     inkscape:document-units="mm"
     inkscape:current-layer="layer1"
     showgrid="false"
     fit-margin-top="0"
     fit-margin-left="0"
     fit-margin-right="0"
     fit-margin-bottom="0"
     units="px"
     inkscape:window-width="1853"
     inkscape:window-height="1025"
     inkscape:window-x="67"
     inkscape:window-y="27"
     inkscape:window-maximized="1" />
  <metadata
     id="metadata5">
    <rdf:RDF>
      <cc:Work
         rdf:about="">
        <dc:format>image/svg+xml</dc:format>
        <dc:type
           rdf:resource="http://purl.org/dc/dcmitype/StillImage" />
        <dc:title></dc:title>
      </cc:Work>
    </rdf:RDF>
  </metadata>
  <g
     inkscape:label="Layer 1"
     inkscape:groupmode="layer"
     id="layer1"
     transform="translate(-57.604002,-32.873163)">
    <path
       inkscape:connector-curvature="0"
       id="path876"
       style="fill:#f46b17;fill-opacity:1;fill-rule:nonzero;stroke:none;stroke-width:0.03852247"
       d="m 78.179598,32.873383 c -0.988521,0 -1.789956,0.801204 -1.789956,1.78976 0,0.309487 0.0786,0.60057 0.216812,0.854505 -0.17819,0.08874 -0.593069,0.296868 -1.174326,0.598691 -0.216382,-0.443327 -0.670349,-0.749479 -1.196881,-0.749479 -0.736011,0 -1.332665,0.596529 -1.332665,1.33249 0,0.245817 0.06778,0.475371 0.183896,0.673008 -0.298862,0.164901 -0.609171,0.337977 -0.927353,0.517931 -0.187132,-0.284679 -0.508937,-0.472914 -0.875002,-0.472914 -0.578133,0 -1.046827,0.468585 -1.046827,1.046727 0,0.171172 0.04188,0.332284 0.114779,0.474874 -0.329372,0.19646 -0.661321,0.397767 -0.993353,0.602771 -0.133207,-0.112764 -0.305154,-0.180998 -0.493407,-0.180998 -0.422251,0 -0.764561,0.342265 -0.764561,0.764462 0,0.06794 0.0097,0.133342 0.02637,0.195961 -1.338573,0.869479 -2.618971,1.780649 -3.655979,2.665855 -1.209283,-2.7038 -2.992533,-5.671767 -5.474519,-8.088268 -0.0025,-0.0025 -0.0048,-0.0048 -0.007,-0.007 -0.290416,-0.286096 -0.531021,-0.159898 -0.197162,0.196483 0.0038,0.0048 0.0084,0.0091 0.01268,0.01358 2.106596,2.266381 3.761345,5.546444 4.889151,8.537304 -4.278219,3.652751 -8.994428,10.73041 -3.825261,12.954424 0.752616,0.323824 1.095633,-0.295285 0.771719,-0.485857 -0.05816,-0.03428 -2.360395,-1.278559 -0.896894,-5.101279 h 3.683816 c 0.197298,0 0.35725,-0.159988 0.35725,-0.357247 0,-0.197275 -0.159966,-0.357203 -0.35725,-0.357203 h -3.378312 c 0.197705,-0.422653 0.438772,-0.8731 0.729063,-1.352715 h 2.649229 c 0.19741,0 0.357295,-0.159944 0.357295,-0.3572 0,-0.197275 -0.159876,-0.357241 -0.357295,-0.357241 h -2.193812 c 0.273443,-0.409127 0.580342,-0.837404 0.925233,-1.28606 h 1.268579 c 0.19741,0 0.357295,-0.159966 0.357295,-0.3572 0,-0.197253 -0.159876,-0.35725 -0.357295,-0.35725 h -0.7016 c 0.400155,-0.48885 0.841711,-0.99946 1.330416,-1.533745 0.0038,-0.0048 0.0084,-0.0093 0.01268,-0.01404 0.971459,2.812852 1.440527,5.21134 1.337658,6.011412 -0.05592,0.435388 -0.336942,0.617341 -0.449924,0.670929 -0.180975,0.08576 -0.255126,0.335485 0.02862,0.419077 0.905132,0.266825 1.462251,-0.63161 1.562546,-1.352675 0.101037,-0.727176 -0.393921,-3.389494 -1.700906,-6.563549 1.092059,-1.086254 2.352277,-2.123914 3.636916,-3.074859 0.112311,0.06491 0.242357,0.102645 0.381471,0.102645 0.422289,0 0.764599,-0.342304 0.764599,-0.7645 0,-0.05141 -0.0054,-0.101603 -0.01494,-0.150163 0.341395,-0.237916 0.681379,-0.469177 1.01757,-0.692604 0.178847,0.142579 0.405063,0.228338 0.651582,0.228338 0.57813,0 1.046826,-0.468588 1.046826,-1.046682 0,-0.08691 -0.01177,-0.170878 -0.03172,-0.251601 0.335275,-0.208074 0.660647,-0.406136 0.973251,-0.593373 0.242724,0.253851 0.583833,0.412706 0.962759,0.412706 0.73602,0 1.332667,-0.596529 1.332667,-1.33249 0,-0.129608 -0.01947,-0.254511 -0.0539,-0.372968 0.568855,-0.316722 0.983739,-0.540491 1.186273,-0.656031 0.322214,0.472246 0.864384,0.782514 1.47935,0.782514 0.988563,0 1.789996,-0.801198 1.789996,-1.789713 0,-0.988566 -0.801433,-1.789763 -1.789996,-1.789763" />
  </g>
  <style
     id="style2"
     type="text/css">
	.st0{fill:#FBBC05;}
</style>
</svg>
