<?xml version="1.0" encoding="UTF-8" standalone="no"?>
<!-- Created with Inkscape (http://www.inkscape.org/) -->

<svg
   xmlns:dc="http://purl.org/dc/elements/1.1/"
   xmlns:cc="http://creativecommons.org/ns#"
   xmlns:rdf="http://www.w3.org/1999/02/22-rdf-syntax-ns#"
   xmlns:svg="http://www.w3.org/2000/svg"
   xmlns="http://www.w3.org/2000/svg"
   xmlns:sodipodi="http://sodipodi.sourceforge.net/DTD/sodipodi-0.dtd"
   xmlns:inkscape="http://www.inkscape.org/namespaces/inkscape"
   width="90.029541"
   height="90"
   viewBox="0 0 23.820316 23.812499"
   version="1.1"
   id="svg8"
   inkscape:version="0.92.4 (f8dce91, 2019-08-02)"
   sodipodi:docname="logo-ga4gh.svg"
   inkscape:export-filename="/home/uniqueg/Dropbox/repos/proTES/images/logo-ga4gh.png"
   inkscape:export-xdpi="89.599998"
   inkscape:export-ydpi="89.599998">
  <defs
     id="defs2" />
  <sodipodi:namedview
     id="base"
     pagecolor="#ffffff"
     bordercolor="#666666"
     borderopacity="1.0"
     inkscape:pageopacity="0.0"
     inkscape:pageshadow="2"
     inkscape:zoom="1"
     inkscape:cx="126.06233"
     inkscape:cy="-103.74328"
     inkscape:document-units="mm"
     inkscape:current-layer="layer1"
     showgrid="false"
     fit-margin-top="0"
     fit-margin-left="0"
     fit-margin-right="0"
     fit-margin-bottom="0"
     units="px"
     inkscape:window-width="1853"
     inkscape:window-height="1025"
     inkscape:window-x="67"
     inkscape:window-y="27"
     inkscape:window-maximized="1" />
  <metadata
     id="metadata5">
    <rdf:RDF>
      <cc:Work
         rdf:about="">
        <dc:format>image/svg+xml</dc:format>
        <dc:type
           rdf:resource="http://purl.org/dc/dcmitype/StillImage" />
        <dc:title></dc:title>
      </cc:Work>
    </rdf:RDF>
  </metadata>
  <g
     inkscape:label="Layer 1"
     inkscape:groupmode="layer"
     id="layer1"
     transform="translate(-43.878236,-32.873117)">
    <g
       style="stroke-width:1.40800524"
       transform="matrix(0.2052133,0,0,0.20518623,43.873289,32.873755)"
       id="g122">
      <path
         d="m 59.8,21.9 c 2,1.8 4.1,3.5 6.3,5.1 2.7,-0.3 5.4,-0.8 8.1,-1.4 -0.1,-0.3 -0.2,-0.7 -0.3,-1 -3.5,-2.1 -6.9,-4.5 -10.1,-7 -1.3,1.5 -2.6,2.9 -4,4.3 z"
         id="path2"
         inkscape:connector-curvature="0"
         style="fill:#4faedc;stroke-width:1.40800524" />
      <path
         d="m 32.9,89.7 c -2.6,-1.3 -5.3,-2.5 -8,-3.5 -1.2,3.1 -2.7,6.2 -4.3,9.1 4,-2.2 8.1,-4.1 12.3,-5.6 z"
         id="path4"
         inkscape:connector-curvature="0"
         style="fill:#e34a3b;stroke-width:1.40800524" />
      <path
         d="M 72.9,20.7 C 72,16.2 71.5,11.5 71.4,6.8 c -1.8,3 -3.7,5.9 -5.9,8.6 2.4,1.8 4.9,3.6 7.4,5.3 z"
         id="path6"
         inkscape:connector-curvature="0"
         style="fill:#4faedc;stroke-width:1.40800524" />
      <path
         d="m 37.3,88.3 c 0.3,-0.1 0.6,-0.2 0.9,-0.2 -0.8,-2.5 -1.7,-5 -2.8,-7.4 -2.5,-1.1 -5.1,-2 -7.7,-2.9 -0.5,1.9 -1.1,3.8 -1.7,5.7 3.7,1.4 7.3,3.1 10.8,5 0.2,-0.1 0.3,-0.1 0.5,-0.2 z"
         id="path8"
         inkscape:connector-curvature="0"
         style="fill:#e34a3b;stroke-width:1.40800524" />
      <path
         d="m 31.2,72.4 c -0.6,-1 -1.2,-1.9 -1.8,-2.9 -0.3,1.8 -0.6,3.7 -1,5.5 1.8,0.5 3.5,1.1 5.2,1.8 -0.7,-1.4 -1.5,-2.9 -2.4,-4.4 z"
         id="path10"
         inkscape:connector-curvature="0"
         style="fill:#e34a3b;stroke-width:1.40800524" />
      <path
         d="m 17.9,63.7 c -3.4,3 -7.1,5.6 -11,8 3.4,0 6.8,0.3 10.1,0.8 0.5,-2.9 0.8,-5.8 0.9,-8.8 z"
         id="path12"
         inkscape:connector-curvature="0"
         style="fill:#e34a3b;stroke-width:1.40800524" />
      <path
         d="m 25,77 c -1.8,-0.5 -3.7,-0.9 -5.5,-1.3 -0.3,1.7 -0.6,3.4 -1,5.1 1.6,0.5 3.3,1 4.9,1.6 0.5,-1.7 1.1,-3.5 1.6,-5.4 z"
         id="path14"
         inkscape:connector-curvature="0"
         style="fill:#e34a3b;stroke-width:1.40800524" />
      <path
         d="m 28.3,41 c 0.4,1.7 0.7,3.5 1,5.3 1.5,-2.3 2.9,-4.6 4.1,-7 -1.7,0.6 -3.4,1.1 -5.1,1.7 z"
         id="path16"
         inkscape:connector-curvature="0"
         style="fill:#9f7ab0;stroke-width:1.40800524" />
      <path
         d="M 61.8,27.3 C 60.4,26.2 59,25 57.7,23.8 c -1.3,1.2 -2.6,2.4 -4,3.5 2.7,0.2 5.4,0.2 8.1,0 z"
         id="path18"
         inkscape:connector-curvature="0"
         style="fill:#4faedc;stroke-width:1.40800524" />
      <path
         d="m 82.6,26.2 c 2.7,1.3 5.4,2.5 8.1,3.6 1.2,-3.1 2.7,-6.2 4.3,-9.2 -4,2.2 -8.1,4.1 -12.4,5.6 z"
         id="path20"
         inkscape:connector-curvature="0"
         style="fill:#1b75bb;stroke-width:1.40800524" />
      <path
         d="m 24.9,29.9 c 2.8,-1.1 5.5,-2.4 8.2,-3.7 -4.4,-1.5 -8.6,-3.4 -12.7,-5.6 1.7,3 3.2,6.1 4.5,9.3 z"
         id="path22"
         inkscape:connector-curvature="0"
         style="fill:#9f7ab0;stroke-width:1.40800524" />
      <path
         d="m 57.7,12.3 c -1.2,1.2 -2.5,2.3 -3.8,3.4 1.2,1.4 2.5,2.8 3.9,4.1 1.3,-1.3 2.6,-2.7 3.8,-4.1 -1.4,-1 -2.7,-2.2 -3.9,-3.4 z"
         id="path24"
         inkscape:connector-curvature="0"
         style="fill:#4faedc;stroke-width:1.40800524" />
      <path
         d="m 55.7,21.9 c -1.4,-1.4 -2.7,-2.8 -4,-4.3 -3.1,2.5 -6.4,4.8 -9.8,6.9 -0.1,0.4 -0.2,0.8 -0.3,1.2 2.6,0.6 5.3,1 8,1.3 2.1,-1.6 4.1,-3.3 6.1,-5.1 z"
         id="path26"
         inkscape:connector-curvature="0"
         style="fill:#4faedc;stroke-width:1.40800524" />
      <path
         d="m 53.7,88.5 c 1.4,1.1 2.8,2.3 4.2,3.6 1.3,-1.2 2.7,-2.5 4.1,-3.6 -2.7,-0.2 -5.5,-0.2 -8.3,0 z"
         id="path28"
         inkscape:connector-curvature="0"
         style="fill:#f9a533;stroke-width:1.40800524" />
      <path
         d="m 43,95.5 c 0.8,4.4 1.3,8.8 1.4,13.2 1.7,-2.8 3.6,-5.6 5.6,-8.2 -2.2,-1.7 -4.6,-3.4 -7,-5 z"
         id="path30"
         inkscape:connector-curvature="0"
         style="fill:#f9a533;stroke-width:1.40800524" />
      <path
         d="m 57.9,103.6 c 1.3,-1.2 2.5,-2.3 3.9,-3.5 -1.2,-1.4 -2.5,-2.8 -3.8,-4.1 -1.3,1.3 -2.6,2.7 -3.9,4.2 1.3,1.1 2.5,2.2 3.8,3.4 z"
         id="path32"
         inkscape:connector-curvature="0"
         style="fill:#f9a533;stroke-width:1.40800524" />
      <path
         d="m 55.9,94 c -2,-1.9 -4.1,-3.6 -6.4,-5.2 -2.6,0.3 -5.2,0.7 -7.7,1.3 0.1,0.5 0.3,1 0.4,1.4 3.3,2.1 6.6,4.3 9.7,6.8 1.2,-1.4 2.6,-2.9 4,-4.3 z"
         id="path34"
         inkscape:connector-curvature="0"
         style="fill:#f9a533;stroke-width:1.40800524" />
      <path
         d="m 97.2,35.1 c -1.6,-0.5 -3.2,-1 -4.8,-1.6 -0.6,1.8 -1.2,3.6 -1.6,5.4 1.8,0.5 3.6,0.9 5.5,1.2 0.2,-1.7 0.5,-3.4 0.9,-5 z"
         id="path36"
         inkscape:connector-curvature="0"
         style="fill:#1b75bb;stroke-width:1.40800524" />
      <path
         d="m 99,40.6 c 4.8,0.7 9.7,0.9 14.6,0.7 -0.3,-0.9 -0.6,-1.9 -0.9,-2.8 -4.3,-0.6 -8.5,-1.4 -12.7,-2.6 -0.4,1.5 -0.7,3.1 -1,4.7 z"
         id="path38"
         inkscape:connector-curvature="0"
         style="fill:#1b75bb;stroke-width:1.40800524" />
      <path
         d="m 109,71.5 c -4,-2.4 -7.8,-5.1 -11.3,-8.2 0.2,3 0.5,6 0.9,9 3.4,-0.5 6.9,-0.8 10.4,-0.8 z"
         id="path40"
         inkscape:connector-curvature="0"
         style="fill:#8bc53f;stroke-width:1.40800524" />
      <path
         d="m 7.1,44.4 c 3.8,2.3 7.4,4.9 10.8,7.8 -0.2,-2.9 -0.5,-5.8 -0.9,-8.6 -3.3,0.5 -6.6,0.7 -9.9,0.8 z"
         id="path42"
         inkscape:connector-curvature="0"
         style="fill:#9f7ab0;stroke-width:1.40800524" />
      <path
         d="m 94.7,55 c 0.1,-4.1 0.5,-8.1 1,-12.1 -1.9,-0.4 -3.8,-0.8 -5.7,-1.3 -0.6,2.6 -1,5.2 -1.3,7.8 1.6,2.2 3.4,4.3 5.2,6.3 0.3,-0.2 0.6,-0.4 0.8,-0.7 z"
         id="path44"
         inkscape:connector-curvature="0"
         style="fill:#1b75bb;stroke-width:1.40800524" />
      <path
         d="M 90.8,85.9 C 88,87 85.4,88.2 82.7,89.5 87,91 91.2,92.8 95.1,95 93.5,92.1 92,89 90.8,85.9 Z"
         id="path46"
         inkscape:connector-curvature="0"
         style="fill:#8bc53f;stroke-width:1.40800524" />
      <path
         d="m 60,94 c 1.4,1.4 2.7,2.8 4,4.3 3.2,-2.6 6.5,-4.9 10,-7.1 0.1,-0.4 0.2,-0.7 0.3,-1.1 -2.6,-0.6 -5.3,-1 -8,-1.3 C 64.1,90.4 62,92.2 60,94 Z"
         id="path48"
         inkscape:connector-curvature="0"
         style="fill:#f9a533;stroke-width:1.40800524" />
      <path
         d="M 27,66.1 C 25.4,64 23.7,61.9 21.9,60 c -0.3,0.3 -0.7,0.7 -1,1 -0.1,4 -0.4,8 -1,12 1.9,0.4 3.9,0.8 5.8,1.3 0.5,-2.7 1,-5.4 1.3,-8.2 z"
         id="path50"
         inkscape:connector-curvature="0"
         style="fill:#e34a3b;stroke-width:1.40800524" />
      <path
         d="m 86.4,69.7 c -1.4,2.2 -2.8,4.5 -4,6.9 1.6,-0.6 3.3,-1.2 5,-1.7 -0.4,-1.7 -0.8,-3.4 -1,-5.2 z"
         id="path52"
         inkscape:connector-curvature="0"
         style="fill:#8bc53f;stroke-width:1.40800524" />
      <path
         d="m 89.8,83.3 c -0.7,-1.9 -1.2,-3.7 -1.7,-5.6 -2.5,0.8 -5,1.7 -7.4,2.8 -1.1,2.5 -2,5 -2.8,7.6 0.4,0.1 0.7,0.2 1.1,0.3 3.4,-1.9 7.1,-3.7 10.8,-5.1 z"
         id="path54"
         inkscape:connector-curvature="0"
         style="fill:#8bc53f;stroke-width:1.40800524" />
      <path
         d="m 38,27.7 c -0.4,-0.1 -0.7,-0.2 -1.1,-0.3 -3.6,1.9 -7.2,3.7 -11,5.2 0.7,1.8 1.2,3.7 1.8,5.6 2.6,-0.8 5.1,-1.8 7.6,-2.9 1,-2.4 1.9,-5 2.7,-7.6 z"
         id="path56"
         inkscape:connector-curvature="0"
         style="fill:#9f7ab0;stroke-width:1.40800524" />
      <path
         d="m 71.7,109 c 0,-4.7 0.5,-9.3 1.4,-13.8 -2.5,1.7 -4.9,3.4 -7.3,5.3 2.1,2.7 4.1,5.5 5.9,8.5 z"
         id="path58"
         inkscape:connector-curvature="0"
         style="fill:#f9a533;stroke-width:1.40800524" />
      <path
         d="m 18.1,57 c 0,-0.3 0,-0.6 0,-0.8 C 13.2,51.6 7.6,47.8 1.6,44.7 c -2,8.6 -2.2,17.7 0,26.8 6.1,-3.2 11.6,-7.1 16.5,-11.7 0,-1 0,-1.9 0,-2.8 z"
         id="path60"
         inkscape:connector-curvature="0"
         style="fill:#e34a3b;stroke-width:1.40800524" />
      <path
         d="m 60,105.5 c 3,3 5.9,6.2 8.6,9.6 1,-0.2 2,-0.4 2.9,-0.6 -2.2,-4.4 -4.9,-8.5 -7.9,-12.2 -1.3,1.1 -2.5,2.1 -3.6,3.2 z"
         id="path62"
         inkscape:connector-curvature="0"
         style="fill:#f9a533;stroke-width:1.40800524" />
      <path
         d="m 36.5,91.6 c -6.5,2 -12.7,4.9 -18.4,8.6 6.6,6.3 14.6,10.9 23.4,13.5 0.3,-6.8 -0.3,-13.6 -1.8,-20.3 -1.1,-0.6 -2.2,-1.2 -3.2,-1.8 z"
         id="path64"
         inkscape:connector-curvature="0"
         style="fill:#f9a533;stroke-width:1.40800524" />
      <path
         d="m 50.6,115.6 c 4.8,0.6 9.7,0.6 14.6,0 -2.3,-2.9 -4.8,-5.6 -7.4,-8.1 -2.5,2.6 -4.9,5.3 -7.2,8.1 z"
         id="path66"
         inkscape:connector-curvature="0"
         style="fill:#f9a533;stroke-width:1.40800524" />
      <path
         d="m 17.7,83.6 c -1.1,4.1 -2.4,8 -4,11.9 0.7,0.8 1.3,1.5 2,2.3 2.6,-4 4.8,-8.3 6.5,-12.7 -1.4,-0.5 -2.9,-1 -4.5,-1.5 z"
         id="path68"
         inkscape:connector-curvature="0"
         style="fill:#e34a3b;stroke-width:1.40800524" />
      <path
         d="M 16.6,75.3 C 12,74.6 7.2,74.4 2.4,74.6 c 0.3,1 0.6,2 1,2.9 4.1,0.6 8.2,1.4 12.2,2.5 0.4,-1.5 0.7,-3.1 1,-4.7 z"
         id="path70"
         inkscape:connector-curvature="0"
         style="fill:#e34a3b;stroke-width:1.40800524" />
      <path
         d="M 4.6,80.6 C 6.5,85.1 8.9,89.2 11.7,93 13,89.7 14.1,86.3 15,82.8 11.6,81.9 8.1,81.2 4.6,80.6 Z"
         id="path72"
         inkscape:connector-curvature="0"
         style="fill:#e34a3b;stroke-width:1.40800524" />
      <path
         d="m 52.2,102.4 c -3,3.8 -5.6,7.8 -7.7,12.1 1,0.2 1.9,0.4 2.9,0.6 2.6,-3.4 5.4,-6.6 8.4,-9.6 -1.1,-1 -2.3,-2.1 -3.6,-3.1 z"
         id="path74"
         inkscape:connector-curvature="0"
         style="fill:#f9a533;stroke-width:1.40800524" />
      <path
         d="m 76.4,93.1 c -1.6,6.7 -2.2,13.6 -1.8,20.6 9.1,-2.7 17,-7.4 23.4,-13.6 -5.9,-3.8 -12.2,-6.7 -18.8,-8.7 -0.9,0.6 -1.8,1.1 -2.8,1.7 z"
         id="path76"
         inkscape:connector-curvature="0"
         style="fill:#8bc53f;stroke-width:1.40800524" />
      <path
         d="m 114.4,44.3 c -6.3,3.2 -11.9,7.3 -16.9,12 0,1 0,2 0,3 5,4.7 10.7,8.8 17,12 2.1,-8.6 2.2,-17.9 -0.1,-27 z"
         id="path78"
         inkscape:connector-curvature="0"
         style="fill:#1b75bb;stroke-width:1.40800524" />
      <path
         d="m 104.2,93.2 c 3,-4 5.5,-8.3 7.4,-13 -3.7,0.6 -7.3,1.3 -10.9,2.3 1,3.7 2.1,7.3 3.5,10.7 z"
         id="path80"
         inkscape:connector-curvature="0"
         style="fill:#8bc53f;stroke-width:1.40800524" />
      <path
         d="m 99.1,75.1 c 0.3,1.6 0.6,3.1 1,4.7 4.2,-1.2 8.5,-2 12.8,-2.6 0.3,-0.9 0.6,-1.8 0.9,-2.8 -5,-0.2 -9.9,0 -14.7,0.7 z"
         id="path82"
         inkscape:connector-curvature="0"
         style="fill:#8bc53f;stroke-width:1.40800524" />
      <path
         d="m 96.3,75.6 c -1.8,0.3 -3.7,0.8 -5.5,1.3 0.5,1.8 1,3.6 1.7,5.4 1.6,-0.6 3.2,-1.1 4.8,-1.6 -0.4,-1.7 -0.7,-3.4 -1,-5.1 z"
         id="path84"
         inkscape:connector-curvature="0"
         style="fill:#8bc53f;stroke-width:1.40800524" />
      <path
         d="m 93.5,84.9 c 1.8,4.5 4,8.9 6.7,13 0.7,-0.7 1.3,-1.4 1.9,-2.1 -1.7,-4.1 -3,-8.2 -4.1,-12.4 -1.5,0.5 -3,1 -4.5,1.5 z"
         id="path86"
         inkscape:connector-curvature="0"
         style="fill:#8bc53f;stroke-width:1.40800524" />
      <path
         d="m 95.8,72.8 c -0.6,-4.1 -1,-8.1 -1.1,-12.2 -0.2,-0.2 -0.5,-0.5 -0.7,-0.7 -1.9,2 -3.6,4.2 -5.2,6.4 0.3,2.6 0.8,5.3 1.3,7.8 1.9,-0.5 3.8,-0.9 5.7,-1.3 z"
         id="path88"
         inkscape:connector-curvature="0"
         style="fill:#8bc53f;stroke-width:1.40800524" />
      <path
         d="m 55.6,10.4 c -3,-2.9 -5.7,-6 -8.3,-9.3 -1,0.2 -1.9,0.4 -2.9,0.6 2.2,4.2 4.8,8.2 7.7,11.9 1.2,-1.1 2.3,-2.2 3.5,-3.2 z"
         id="path90"
         inkscape:connector-curvature="0"
         style="fill:#4faedc;stroke-width:1.40800524" />
      <path
         d="m 97.9,32.3 c 1.1,-4.1 2.4,-8.2 4.1,-12.2 -0.6,-0.7 -1.3,-1.5 -2,-2.2 -2.7,4.1 -4.9,8.4 -6.6,12.9 1.5,0.5 3,1 4.5,1.5 z"
         id="path92"
         inkscape:connector-curvature="0"
         style="fill:#1b75bb;stroke-width:1.40800524" />
      <path
         d="m 79,24.3 c 6.6,-2 12.9,-4.9 18.7,-8.7 C 91.1,9.5 83.1,4.9 74.4,2.4 c -0.3,7 0.3,13.8 1.9,20.4 0.9,0.5 1.8,1 2.7,1.5 z"
         id="path94"
         inkscape:connector-curvature="0"
         style="fill:#4faedc;stroke-width:1.40800524" />
      <path
         d="m 111.5,35.4 c -2,-4.6 -4.5,-8.9 -7.5,-12.8 -1.3,3.4 -2.5,6.9 -3.4,10.5 3.6,1 7.2,1.7 10.9,2.3 z"
         id="path96"
         inkscape:connector-curvature="0"
         style="fill:#1b75bb;stroke-width:1.40800524" />
      <path
         d="m 16.5,40.8 c -0.3,-1.6 -0.6,-3.1 -1,-4.7 -4,1.1 -8.1,2 -12.2,2.6 -0.3,0.9 -0.7,1.9 -0.9,2.9 4.7,0.1 9.5,-0.1 14.1,-0.8 z"
         id="path98"
         inkscape:connector-curvature="0"
         style="fill:#9f7ab0;stroke-width:1.40800524" />
      <path
         d="m 97.7,52.3 c 3.4,-3 7.1,-5.7 11.1,-8.1 -3.4,0 -6.8,-0.3 -10.2,-0.8 -0.5,2.9 -0.8,5.9 -0.9,8.9 z"
         id="path100"
         inkscape:connector-curvature="0"
         style="fill:#1b75bb;stroke-width:1.40800524" />
      <path
         d="m 64.8,0.4 c -4.7,-0.6 -9.5,-0.5 -14.3,0.1 2.3,2.8 4.6,5.4 7.2,7.9 2.5,-2.6 4.9,-5.2 7.1,-8 z"
         id="path102"
         inkscape:connector-curvature="0"
         style="fill:#4faedc;stroke-width:1.40800524" />
      <path
         d="m 82.4,39.2 c 1.2,2.3 2.5,4.6 3.9,6.8 0.3,-1.7 0.6,-3.4 1,-5.1 -1.6,-0.6 -3.3,-1.1 -4.9,-1.7 z"
         id="path104"
         inkscape:connector-curvature="0"
         style="fill:#1b75bb;stroke-width:1.40800524" />
      <path
         d="m 63.4,13.6 c 3,-3.7 5.5,-7.8 7.7,-12.1 -1,-0.2 -2,-0.4 -3,-0.6 -2.6,3.3 -5.4,6.5 -8.4,9.5 1.2,1 2.4,2.1 3.7,3.2 z"
         id="path106"
         inkscape:connector-curvature="0"
         style="fill:#4faedc;stroke-width:1.40800524" />
      <path
         d="m 22.2,30.9 c -1.7,-4.4 -3.9,-8.6 -6.5,-12.6 -0.7,0.7 -1.4,1.5 -2,2.3 1.6,3.9 2.9,7.8 3.9,11.9 1.6,-0.5 3.1,-1 4.6,-1.6 z"
         id="path108"
         inkscape:connector-curvature="0"
         style="fill:#9f7ab0;stroke-width:1.40800524" />
      <path
         d="m 26.9,49.7 c -0.3,-2.7 -0.8,-5.3 -1.4,-7.9 -1.9,0.5 -3.8,1 -5.8,1.3 0.6,3.9 0.9,7.8 1.1,11.8 0.3,0.3 0.7,0.6 1,1 1.9,-2 3.6,-4 5.1,-6.2 z"
         id="path110"
         inkscape:connector-curvature="0"
         style="fill:#9f7ab0;stroke-width:1.40800524" />
      <path
         d="m 11.6,23.2 c -2.8,3.8 -5.2,8 -7,12.3 3.5,-0.6 6.9,-1.3 10.3,-2.2 -0.9,-3.4 -2,-6.8 -3.3,-10.1 z"
         id="path112"
         inkscape:connector-curvature="0"
         style="fill:#9f7ab0;stroke-width:1.40800524" />
      <path
         d="M 39.4,22.7 C 40.9,16.2 41.5,9.4 41.2,2.5 32.3,5.2 24.5,9.9 18.1,15.9 c 5.7,3.7 12,6.5 18.4,8.4 1,-0.5 2,-1.1 2.9,-1.6 z"
         id="path114"
         inkscape:connector-curvature="0"
         style="fill:#9f7ab0;stroke-width:1.40800524" />
      <path
         d="m 44.2,7.2 c -0.1,4.5 -0.5,9 -1.4,13.3 2.4,-1.6 4.8,-3.3 7.1,-5.2 -2.1,-2.5 -4,-5.2 -5.7,-8.1 z"
         id="path116"
         inkscape:connector-curvature="0"
         style="fill:#4faedc;stroke-width:1.40800524" />
      <path
         d="m 19.3,40.3 c 1.9,-0.4 3.7,-0.8 5.6,-1.3 -0.5,-1.8 -1.1,-3.6 -1.7,-5.4 -1.6,0.6 -3.3,1.1 -4.9,1.6 0.4,1.7 0.7,3.4 1,5.1 z"
         id="path118"
         inkscape:connector-curvature="0"
         style="fill:#9f7ab0;stroke-width:1.40800524" />
      <path
         d="m 78.5,27.4 c -0.3,0.1 -0.6,0.1 -0.8,0.2 0.8,2.6 1.8,5.2 2.9,7.7 2.4,1 4.9,1.9 7.4,2.7 0.5,-1.9 1.1,-3.7 1.7,-5.6 -3.8,-1.5 -7.4,-3.2 -11,-5.1 -0.1,0.1 -0.1,0.1 -0.2,0.1 z"
         id="path120"
         inkscape:connector-curvature="0"
         style="fill:#1b75bb;stroke-width:1.40800524" />
    </g>
  </g>
  <style
     id="style2"
     type="text/css">
	.st0{fill:#FBBC05;}
</style>
</svg>
